<svg width="640" height="512" viewBox="0 0 640 512" fill="none" xmlns="http://www.w3.org/2000/svg">
<g filter="url(#filter0_i_22_4)">
<path d="M400 96C412.73 96 424.939 90.9429 433.941 81.9411C442.943 72.9394 448 60.7304 448 48C448 35.2696 442.943 23.0606 433.941 14.0589C424.939 5.05713 412.73 0 400 0C387.27 0 375.061 5.05713 366.059 14.0589C357.057 23.0606 352 35.2696 352 48C352 60.7304 357.057 72.9394 366.059 81.9411C375.061 90.9429 387.27 96 400 96ZM427.2 160L365.4 111.2C348.1 97.6 323.7 97.4 306.3 110.9L223.2 175.1C192.5 198.9 194.7 245.9 227.5 266.7L288 305.1V416C288 433.7 302.3 448 320 448C337.7 448 352 433.7 352 416V288C352 277.3 346.7 267.3 337.8 261.4L295 232.9L355.3 184.4L396 217C401.7 221.5 408.7 224 416 224H480C497.7 224 512 209.7 512 192C512 174.3 497.7 160 480 160H427.2ZM56 384C56 364.904 63.5857 346.591 77.0883 333.088C90.5909 319.586 108.904 312 128 312C147.096 312 165.409 319.586 178.912 333.088C192.414 346.591 200 364.904 200 384C200 403.096 192.414 421.409 178.912 434.912C165.409 448.414 147.096 456 128 456C108.904 456 90.5909 448.414 77.0883 434.912C63.5857 421.409 56 403.096 56 384ZM256 384C256 350.052 242.514 317.495 218.51 293.49C194.505 269.486 161.948 256 128 256C94.0523 256 61.495 269.486 37.4903 293.49C13.4857 317.495 0 350.052 0 384C0 417.948 13.4857 450.505 37.4903 474.51C61.495 498.514 94.0523 512 128 512C161.948 512 194.505 498.514 218.51 474.51C242.514 450.505 256 417.948 256 384ZM440 384C440 364.904 447.586 346.591 461.088 333.088C474.591 319.586 492.904 312 512 312C531.096 312 549.409 319.586 562.912 333.088C576.414 346.591 584 364.904 584 384C584 403.096 576.414 421.409 562.912 434.912C549.409 448.414 531.096 456 512 456C492.904 456 474.591 448.414 461.088 434.912C447.586 421.409 440 403.096 440 384ZM640 384C640 350.052 626.514 317.495 602.51 293.49C578.505 269.486 545.948 256 512 256C478.052 256 445.495 269.486 421.49 293.49C397.486 317.495 384 350.052 384 384C384 417.948 397.486 450.505 421.49 474.51C445.495 498.514 478.052 512 512 512C545.948 512 578.505 498.514 602.51 474.51C626.514 450.505 640 417.948 640 384Z" fill="#DEE3F2"/>
</g>
<path d="M427.026 160.5L426.89 160.392L365.091 111.593L427.026 160.5ZM427.026 160.5H427.2M427.026 160.5H427.2M427.2 160.5H480C497.424 160.5 511.5 174.576 511.5 192C511.5 209.424 497.424 223.5 480 223.5H416C408.816 223.5 401.926 221.04 396.312 216.609C396.311 216.609 396.311 216.608 396.31 216.608L355.613 184.01L355.299 183.759L354.987 184.01L294.687 232.51L294.155 232.938L294.723 233.316L337.523 261.816L337.524 261.817C346.282 267.623 351.5 277.465 351.5 288V416C351.5 433.424 337.424 447.5 320 447.5C302.576 447.5 288.5 433.424 288.5 416V305.1V304.825L288.268 304.678L227.768 266.278L227.5 266.7L227.768 266.278C195.261 245.663 193.08 199.083 223.506 175.495L306.606 111.296L306.606 111.295M427.2 160.5L306.606 111.295M306.606 111.295C323.823 97.9374 347.969 98.1334 365.09 111.592L306.606 111.295ZM433.588 81.5876C424.68 90.4956 412.598 95.5 400 95.5C387.402 95.5 375.32 90.4956 366.412 81.5876C357.504 72.6796 352.5 60.5978 352.5 48C352.5 35.4022 357.504 23.3204 366.412 14.4124C375.32 5.50445 387.402 0.5 400 0.5C412.598 0.5 424.68 5.50445 433.588 14.4124C442.496 23.3204 447.5 35.4022 447.5 48C447.5 60.5978 442.496 72.6796 433.588 81.5876ZM76.7348 332.735C63.1384 346.331 55.5 364.772 55.5 384C55.5 403.228 63.1384 421.669 76.7348 435.265C90.3311 448.862 108.772 456.5 128 456.5C147.228 456.5 165.669 448.862 179.265 435.265C192.862 421.669 200.5 403.228 200.5 384C200.5 364.772 192.862 346.331 179.265 332.735C165.669 319.138 147.228 311.5 128 311.5C108.772 311.5 90.3311 319.138 76.7348 332.735ZM218.156 293.844C242.067 317.755 255.5 350.185 255.5 384C255.5 417.815 242.067 450.245 218.156 474.156C194.245 498.067 161.815 511.5 128 511.5C94.1849 511.5 61.7548 498.067 37.8439 474.156C13.933 450.245 0.5 417.815 0.5 384C0.5 350.185 13.933 317.755 37.8439 293.844C61.7548 269.933 94.1849 256.5 128 256.5C161.815 256.5 194.245 269.933 218.156 293.844ZM460.735 332.735C447.138 346.331 439.5 364.772 439.5 384C439.5 403.228 447.138 421.669 460.735 435.265C474.331 448.862 492.772 456.5 512 456.5C531.228 456.5 549.669 448.862 563.265 435.265C576.862 421.669 584.5 403.228 584.5 384C584.5 364.772 576.862 346.331 563.265 332.735C549.669 319.138 531.228 311.5 512 311.5C492.772 311.5 474.331 319.138 460.735 332.735ZM602.156 293.844C626.067 317.755 639.5 350.185 639.5 384C639.5 417.815 626.067 450.245 602.156 474.156C578.245 498.067 545.815 511.5 512 511.5C478.185 511.5 445.755 498.067 421.844 474.156C397.933 450.245 384.5 417.815 384.5 384C384.5 350.185 397.933 317.755 421.844 293.844C445.755 269.933 478.185 256.5 512 256.5C545.815 256.5 578.245 269.933 602.156 293.844Z" stroke="black"/>
<defs>
<filter id="filter0_i_22_4" x="0" y="0" width="640" height="516" filterUnits="userSpaceOnUse" color-interpolation-filters="sRGB">
<feFlood flood-opacity="0" result="BackgroundImageFix"/>
<feBlend mode="normal" in="SourceGraphic" in2="BackgroundImageFix" result="shape"/>
<feColorMatrix in="SourceAlpha" type="matrix" values="0 0 0 0 0 0 0 0 0 0 0 0 0 0 0 0 0 0 127 0" result="hardAlpha"/>
<feOffset dy="4"/>
<feGaussianBlur stdDeviation="2"/>
<feComposite in2="hardAlpha" operator="arithmetic" k2="-1" k3="1"/>
<feColorMatrix type="matrix" values="0 0 0 0 0 0 0 0 0 0 0 0 0 0 0 0 0 0 0.5 0"/>
<feBlend mode="normal" in2="shape" result="effect1_innerShadow_22_4"/>
</filter>
</defs>
</svg>
